<svg xmlns="http://www.w3.org/2000/svg" width="120.563" height="94.304" viewBox="0 0 120.563 94.304">
  <path id="speed" d="M606,368.349a60.494,60.494,0,0,0-49.951,94.3l6.077-4.819a52.75,52.75,0,0,1-8.507-25.07h15.435v-7.808H553.619a52.522,52.522,0,0,1,12.64-30.5l8.143,8.174,2.735,2.745,5.469-5.551-2.735-2.745-8.143-8.174a52.169,52.169,0,0,1,30.384-12.626v15.493h7.778V376.278A52.168,52.168,0,0,1,640.273,388.9l-8.143,8.174-2.734,2.745,5.469,5.551,2.734-2.745,8.143-8.174a52.521,52.521,0,0,1,12.64,30.5H642.946v7.808h15.435a52.748,52.748,0,0,1-8.507,25.07l6.077,4.819A60.494,60.494,0,0,0,606,368.349Zm34.394,45.5-34.576,24.765a9.635,9.635,0,0,0-6.684,2.867,9.729,9.729,0,1,0,16.589,7.076Z" transform="translate(-545.719 -368.349)" fill="#fff"/>
</svg>
