<svg id="wifi_off_black_24dp" xmlns="http://www.w3.org/2000/svg" width="108" height="108" viewBox="0 0 108 108">
    <path id="Path_18756" data-name="Path 18756" d="M108,.045h0L0,0V108H108ZM0,0H108V108H0ZM0,0H108V108H0Z"
        fill="none" />
    <path id="Path_18757" data-name="Path 18757"
        d="M99.892,34.462A69.5,69.5,0,0,0,36.257,15.339L47.59,26.759A56.666,56.666,0,0,1,90.9,43.525l8.994-9.063ZM81.9,52.588a43.959,43.959,0,0,0-20.192-11.6l15.875,16ZM5.5,7.5,19.3,21.321A68.253,68.253,0,0,0,1,34.462l8.949,9.063A55.878,55.878,0,0,1,28.837,30.973L38.911,41.123A43.469,43.469,0,0,0,18.988,52.588v.045l8.949,9.018a31.55,31.55,0,0,1,22.126-9.335L81.858,84.309,87.57,78.6,11.3,1.79Zm31.48,63.214L50.468,84.309,63.96,70.714A18.952,18.952,0,0,0,36.977,70.714Z"
        transform="translate(3.531 6.321)" fill="#323232" />
</svg>
